# xmcd
# 
# Track frame offsets:
#     225
#     16180
#     28602
#     38204
#     44941
#     56825
#     71178
#     80503
#     96015
#     108576
#     119379
#     131632
#     151400
#     164826
#     186242
#     198296
# 
# Disc length: 2778
# 
# Revision: 4
# Processed by: cddbd v1.5.2PL0 Copyright (c) Steve Scherf et al.
# Submitted via: fre:ac v1.0.31
# 
DISCID=eb0ad710
DTITLE=Various Artist - The best Of Contry 4, cd 3
DYEAR=1996
DGENRE=
TTITLE0=John Denver - Two different directions
TTITLE1=Lynn Andersen - Stand by your man
TTITLE2=Jim Reeves - I'm getting better
TTITLE3=Don Williams - Lord I hope this day is good
TTITLE4=Billie Jo Spears - Ease she want in me
TTITLE5=Jerry Lee Levis - Careless hands
TTITLE6=Loretta Lynn - First city
TTITLE7=Kenny Rogers - For the good times
TTITLE8=Jo Anne Houston - Blue, blue day
TTITLE9=Tom T. Hall - Fox on the run
TTITLE10=Billie Jo Spears - You never can tell
TTITLE11=Jerry Lee Levis - Thirty nine and holding
TTITLE12=Lynn Andersen - Rose garden
TTITLE13=John Denver - The gift you are
TTITLE14=Anne Murray - The last thing on my mind
TTITLE15=Jan Howard - I wish I could fall in love
EXTD=
EXTT0=
EXTT1=
EXTT2=
EXTT3=
EXTT4=
EXTT5=
EXTT6=
EXTT7=
EXTT8=
EXTT9=
EXTT10=
EXTT11=
EXTT12=
EXTT13=
EXTT14=
EXTT15=
PLAYORDER=
